<svg width="48" height="48" viewBox="0 0 48 48" fill="none" xmlns="http://www.w3.org/2000/svg">
<g id="services icons">
<path id="Vector" d="M24 16C32.8366 16 40 13.3137 40 10C40 6.68629 32.8366 4 24 4C15.1634 4 8 6.68629 8 10C8 13.3137 15.1634 16 24 16Z" stroke="#06A0ED" stroke-width="3"/>
<path id="Vector_2" d="M40 24C40 27.3138 32.8366 30 24 30C15.1634 30 8 27.3138 8 24" stroke="#06A0ED" stroke-width="3"/>
<path id="Vector_3" d="M40 10V38C40 41.3138 32.8366 44 24 44C15.1634 44 8 41.3138 8 38V10" stroke="#06A0ED" stroke-width="3"/>
<path id="Vector_4" d="M16 16V20" stroke="#06A0ED" stroke-width="3" stroke-linecap="round"/>
<path id="Vector_5" d="M16 30V34" stroke="#06A0ED" stroke-width="3" stroke-linecap="round"/>
</g>
</svg>
