<svg width="48" height="48" viewBox="0 0 48 48" fill="none" xmlns="http://www.w3.org/2000/svg">
<g id="services icons">
<path id="Vector" d="M32 20L34.453 22.1144C35.4844 23.0032 36 23.4478 36 24C36 24.5522 35.4844 24.9968 34.453 25.8856L32 28" stroke="#06A0ED" stroke-width="3" stroke-linecap="round" stroke-linejoin="round"/>
<path id="Vector_2" d="M16 20L13.5469 22.1144C12.5156 23.0032 12 23.4478 12 24C12 24.5522 12.5156 24.9968 13.5469 25.8856L16 28" stroke="#06A0ED" stroke-width="3" stroke-linecap="round" stroke-linejoin="round"/>
<path id="Vector_3" d="M26 18L22 30" stroke="#06A0ED" stroke-width="3" stroke-linecap="round" stroke-linejoin="round"/>
<path id="Vector_4" d="M5 24C5 15.0433 5 10.565 7.78248 7.78248C10.565 5 15.0433 5 24 5C32.9566 5 37.435 5 40.2176 7.78248C43 10.565 43 15.0433 43 24C43 32.9566 43 37.435 40.2176 40.2176C37.435 43 32.9566 43 24 43C15.0433 43 10.565 43 7.78248 40.2176C5 37.435 5 32.9566 5 24Z" stroke="#06A0ED" stroke-width="3"/>
</g>
</svg>
