<svg width="48" height="48" viewBox="0 0 48 48" fill="none" xmlns="http://www.w3.org/2000/svg">
<path d="M24 11.5C24 7.5 27 3.5 31 3.5C31 7.5 28 11.5 24 11.5Z" stroke="white" stroke-width="3" stroke-linejoin="round"/>
<path d="M25 16.18C23.9702 16.18 23.1734 15.8529 22.2828 15.4874C21.1552 15.0245 19.8775 14.5 17.7867 14.5C14.0447 14.5 8 17.4989 8 25.499C8 34.8032 14.2094 44.5 18.2094 44.5C19.5485 44.5 20.755 43.9742 21.908 43.4718C22.963 43.0118 23.9736 42.5714 25 42.5714C26.0264 42.5714 27.037 43.0118 28.092 43.4718C29.245 43.9742 30.4514 44.5 31.7906 44.5C34.5758 44.5 37.9146 39.7984 40 33.8016C36.7586 32.4404 34.676 29.236 34.676 25.5C34.676 22.242 36.4072 20.0796 39 18.5C37 15.5 34.0268 14.5 31.8894 14.5C29.7986 14.5 28.5208 15.0245 27.3932 15.4874C26.5028 15.8529 26.0298 16.18 25 16.18Z" stroke="white" stroke-width="3" stroke-linejoin="round"/>
</svg>
