<svg width="48" height="48" viewBox="0 0 48 48" fill="none" xmlns="http://www.w3.org/2000/svg">
<path d="M26.5704 38.7294L11.6449 41.5012C8.78206 42.0328 7.35068 42.2986 6.52606 41.474C5.70144 40.6492 5.96724 39.2178 6.49886 36.3548L9.27046 21.4286C9.7149 19.0352 9.93712 17.8385 10.726 17.1154C11.515 16.3923 12.9578 16.2512 15.8434 15.969C18.6245 15.6969 21.2566 14.7435 24 12L36 24.001C33.2566 26.7446 32.3026 29.3748 32.0302 32.1562C31.7476 35.0422 31.6062 36.4852 30.8832 37.274C30.1602 38.0628 28.9636 38.285 26.5704 38.7294Z" stroke="white" stroke-width="3" stroke-linejoin="round"/>
<path d="M22 30.421C20.881 30.2394 22.2036 27.4064 21.3984 26.6012M21.3984 26.6012C20.5931 25.796 17.7606 27.119 17.5789 26M21.3984 26.6012L8 40" stroke="white" stroke-width="3" stroke-linecap="round"/>
<path d="M24 12C25.4246 9.8982 27.3542 6.3624 30.213 6.02196C32.1644 5.78958 33.7812 7.40624 37.0144 10.6396L37.3604 10.9855C40.5938 14.2189 42.2104 15.8355 41.978 17.787C41.6376 20.6458 38.1018 22.5754 36 24" stroke="white" stroke-width="3" stroke-linejoin="round"/>
</svg>
