<svg width="48" height="48" viewBox="0 0 48 48" fill="none" xmlns="http://www.w3.org/2000/svg">
<g id="services icons">
<path id="Vector" d="M30.3334 2L31.5292 4.23555C32.3378 5.74693 32.742 6.50263 32.4748 6.82627C32.2074 7.14991 31.327 6.88853 29.5662 6.36577C27.8058 5.84311 25.9368 5.56191 24 5.56191C13.5066 5.56191 5 13.8169 5 24.0001C5 27.3583 5.92524 30.5071 7.54186 33.2191M17.6667 46.0001L16.4707 43.7645C15.6622 42.2531 15.2579 41.4973 15.5252 41.1737C15.7925 40.8501 16.673 41.1115 18.4338 41.6343C20.1942 42.1569 22.0632 42.4381 24 42.4381C34.4934 42.4381 43 34.1831 43 24.0001C43 20.6417 42.0748 17.4929 40.4582 14.7809" stroke="#06A0ED" stroke-width="3" stroke-linecap="round" stroke-linejoin="round"/>
</g>
</svg>
