<!DOCTYPE svg PUBLIC "-//W3C//DTD SVG 1.1//EN" "http://www.w3.org/Graphics/SVG/1.1/DTD/svg11.dtd">
<!-- Uploaded to: SVG Repo, www.svgrepo.com, Transformed by: SVG Repo Mixer Tools -->
<svg fill="#06a0ed" version="1.1" id="Capa_1" xmlns="http://www.w3.org/2000/svg" xmlns:xlink="http://www.w3.org/1999/xlink" width="800px" height="800px" viewBox="0 0 761.523 761.523" xml:space="preserve">
<g id="SVGRepo_bgCarrier" stroke-width="0"/>
<g id="SVGRepo_tracerCarrier" stroke-linecap="round" stroke-linejoin="round"/>
<g id="SVGRepo_iconCarrier"> <g> <g> <circle cx="447.323" cy="108.012" r="66"/> <path d="M741.523,489.312h-84.5c-11,0-20,9-20,20v52.2H532.124c-11,0-20,9-20,20v52h-99.301c-11,0-20,9-20,20v46c0,11,9,20,20,20 h328.7c11,0,20-9,20-20v-190.2C761.523,498.312,752.523,489.312,741.523,489.312z"/> <path d="M154.224,469.812c-5.2,9.7-17.4,13.4-27.1,8.1l-116.6-62.8c-9.7-5.2-13.4-17.399-8.1-27.1l39.3-73 c5.2-9.7,17.4-13.4,27.1-8.1l116.7,62.8c9.7,5.2,13.4,17.4,8.1,27.1L154.224,469.812z"/> <path d="M236.824,407.312v118.4l-73.7,73.699c-11.7,11.7-11.7,30.7,0,42.4c5.9,5.9,13.5,8.8,21.2,8.8c7.7,0,15.4-2.899,21.2-8.8 l82.5-82.5c0.4-0.4,0.7-0.7,1-1.1c0.101-0.2,0.3-0.301,0.4-0.5c0.2-0.2,0.399-0.4,0.6-0.601s0.3-0.399,0.5-0.7 c0.101-0.199,0.3-0.3,0.4-0.5c0.2-0.199,0.399-0.5,0.5-0.699c0.1-0.101,0.2-0.301,0.3-0.4c0.2-0.3,0.3-0.5,0.5-0.8 c0.1-0.101,0.2-0.3,0.3-0.4c0.2-0.3,0.3-0.5,0.5-0.8c0.101-0.2,0.2-0.3,0.3-0.5c0.101-0.3,0.301-0.5,0.4-0.8 c0.1-0.2,0.2-0.4,0.3-0.601c0.101-0.199,0.2-0.5,0.3-0.699c0.101-0.2,0.2-0.4,0.301-0.7c0.1-0.2,0.199-0.4,0.199-0.601 c0.101-0.3,0.2-0.5,0.301-0.8c0.1-0.2,0.1-0.399,0.199-0.5c0.101-0.3,0.2-0.6,0.301-0.899c0-0.2,0.1-0.301,0.1-0.5 c0.1-0.301,0.2-0.601,0.3-0.9c0-0.1,0.101-0.3,0.101-0.5c0.1-0.3,0.1-0.7,0.199-1c0-0.2,0.101-0.3,0.101-0.5 c0.1-0.3,0.1-0.7,0.2-1c0-0.2,0-0.4,0.1-0.5c0-0.3,0.1-0.6,0.1-0.9c0-0.199,0-0.5,0.101-0.699c0-0.301,0-0.5,0.1-0.801 c0-0.399,0-0.899,0-1.3c0-0.1,0-0.1,0-0.2V426.512l-59.2-26.101C237.023,402.712,236.824,404.911,236.824,407.312z"/> <path d="M679.323,270.111c-5.199-15.7-22.199-24.2-37.899-19l-103.3,34.4l-80.5-80.5c-0.301-0.3-0.601-0.6-0.9-0.9 c-2.4-2.6-5.3-4.8-8.8-6.4l-2.4-1.1l-57.399,53.7l6.699-76l-43.699-19.2c-4-1.8-7.601-2.2-12.2-2.2c-0.8,0-133.9,0-133.9,0 c-0.1,0-0.3,0-0.4,0h-0.1h-0.1c-0.4,0-0.9,0-1.3,0c-0.1,0-0.2,0-0.3,0c-0.4,0-0.7,0-1.1,0.1c-0.2,0-0.4,0-0.6,0.1 c-0.3,0-0.5,0.1-0.8,0.1c-0.3,0-0.6,0.1-0.9,0.1c-0.2,0-0.3,0.1-0.5,0.1c-0.4,0.1-0.7,0.1-1.1,0.2c-0.1,0-0.2,0-0.3,0.1 c-0.4,0.1-0.8,0.2-1.2,0.3h-0.1c-0.4,0.1-0.9,0.3-1.3,0.4l0,0c-0.4,0.1-0.9,0.3-1.3,0.5c0,0,0,0-0.1,0c-0.4,0.2-0.8,0.3-1.3,0.5 c0,0-0.1,0-0.1,0.1c-0.4,0.2-0.8,0.3-1.1,0.5c-0.1,0-0.2,0.1-0.3,0.1c-0.3,0.2-0.6,0.3-0.9,0.5c-0.2,0.1-0.3,0.2-0.5,0.3 c-0.2,0.1-0.5,0.3-0.7,0.4s-0.5,0.3-0.7,0.4c-0.1,0.1-0.3,0.2-0.4,0.3c-0.3,0.2-0.6,0.4-0.9,0.6c-0.1,0.1-0.2,0.1-0.2,0.2 c-0.3,0.3-0.7,0.5-1,0.8l-0.1,0.1c-0.4,0.3-0.7,0.6-1,0.9l0,0c-0.3,0.3-0.7,0.6-1,1l0,0c-0.3,0.3-0.6,0.7-0.9,1c0,0,0,0.1-0.1,0.1 c-0.3,0.3-0.6,0.6-0.8,1c-0.1,0.1-0.1,0.1-0.2,0.2c-0.2,0.3-0.5,0.6-0.7,0.9c-0.1,0.1-0.2,0.3-0.3,0.4c-0.2,0.2-0.3,0.5-0.5,0.7 c-0.1,0.2-0.3,0.4-0.4,0.6c-0.1,0.2-0.2,0.3-0.3,0.5c-0.2,0.3-0.4,0.6-0.5,0.9c-0.1,0.1-0.1,0.2-0.2,0.3c-0.2,0.4-0.4,0.8-0.6,1.2 v0.1l-0.1,0.1c-0.1,0.1-0.1,0.2-0.2,0.4l-56.8,113.5c-7.4,14.8-1.4,32.8,13.4,40.2c4.3,2.2,8.9,3.2,13.4,3.2 c11,0,21.6-6.1,26.9-16.6l48.7-97.4h71.8l-66.3,130.9c-5.7,12.9,0.2,27.9,13.1,33.6l0.5,0.2l179.1,96.1v98.199 c0,16.601,13.4,30,30,30c16.601,0,30-13.399,30-30v-115.3v-0.1c0-0.4,0-0.8,0-1.2c0-0.1,0-0.3,0-0.4c0-0.3,0-0.6-0.1-1 c0-0.199,0-0.399-0.1-0.6c0-0.2-0.101-0.4-0.101-0.7s-0.1-0.6-0.1-0.899c0-0.101,0-0.2-0.101-0.4c-0.1-0.4-0.1-0.8-0.2-1.1l0,0 c-0.6-2.801-1.6-5.5-3-8c-0.1-0.2-0.3-0.5-0.399-0.7c-0.101-0.2-0.2-0.3-0.3-0.5c-1.7-2.8-3.8-5.3-6.4-7.4 c-0.1-0.1-0.1-0.1-0.2-0.2c-0.2-0.199-0.5-0.399-0.7-0.6c-0.199-0.1-0.3-0.3-0.5-0.4c-0.199-0.1-0.399-0.3-0.6-0.399 c-0.2-0.2-0.5-0.3-0.7-0.5c-0.1-0.101-0.3-0.2-0.399-0.3c-0.301-0.2-0.601-0.4-1-0.601l-0.101-0.1l-92-57.4l56.101-110.6 l78.6,78.6l0.1,0.1c0.2,0.2,0.4,0.4,0.601,0.6c0.3,0.3,0.7,0.6,1,0.9c0.2,0.1,0.3,0.3,0.5,0.4c0.5,0.4,1,0.8,1.6,1.2 c0.101,0.1,0.2,0.1,0.3,0.2c1.2,0.9,2.5,1.6,3.801,2.3l0,0c1.3,0.7,2.699,1.2,4.1,1.7c0.1,0,0.1,0,0.2,0.1 c0.7,0.2,1.399,0.4,2.1,0.6c0.1,0,0.2,0,0.3,0.1c0.601,0.1,1.101,0.2,1.7,0.3c0.2,0,0.4,0.1,0.6,0.1c0.601,0.1,1.2,0.2,1.801,0.2 c0.3,0,0.5,0,0.8,0.1c0.5,0,0.899,0,1.399,0.1c0.2,0,0.301,0,0.5,0c0.2,0,0.301,0,0.5,0c0.5,0,1,0,1.4-0.1c0.2,0,0.5,0,0.7-0.1 c0.6-0.1,1.3-0.1,1.9-0.2c0.199,0,0.3-0.1,0.5-0.1c1.5-0.3,3-0.6,4.399-1.1l0,0l0.2-0.1c0.1,0,0.2-0.1,0.3-0.1l120.4-40.1 C676.124,302.812,684.624,285.812,679.323,270.111z"/> </g> </g> </g>
</svg>