<!DOCTYPE svg PUBLIC "-//W3C//DTD SVG 1.1//EN" "http://www.w3.org/Graphics/SVG/1.1/DTD/svg11.dtd">
<!-- Uploaded to: SVG Repo, www.svgrepo.com, Transformed by: SVG Repo Mixer Tools -->
<svg fill="#06A0ED" version="1.1" id="Layer_1" xmlns="http://www.w3.org/2000/svg" xmlns:xlink="http://www.w3.org/1999/xlink" viewBox="0 0 512.006 512.006" xml:space="preserve" width="800px" height="800px">
<g id="SVGRepo_bgCarrier" stroke-width="0"/>
<g id="SVGRepo_tracerCarrier" stroke-linecap="round" stroke-linejoin="round"/>
<g id="SVGRepo_iconCarrier"> <g> <g> <g> <rect x="128.006" y="106.67" width="64" height="64"/> <path d="M452.465,0.003H59.548c-32.832,0-59.541,26.709-59.541,59.541V298.67h512V59.545 C512.006,26.713,485.297,0.003,452.465,0.003z M277.34,106.67h21.333c11.797,0,21.333,9.557,21.333,21.333 s-9.536,21.333-21.333,21.333H277.34c-11.797,0-21.333-9.557-21.333-21.333S265.542,106.67,277.34,106.67z M213.34,277.337 H106.673c-11.797,0-21.333-9.557-21.333-21.333s9.536-21.333,21.333-21.333H213.34c11.797,0,21.333,9.557,21.333,21.333 S225.137,277.337,213.34,277.337z M234.673,192.003c0,11.776-9.536,21.333-21.333,21.333H106.673 c-11.797,0-21.333-9.557-21.333-21.333V85.337c0-11.776,9.536-21.333,21.333-21.333H213.34c11.797,0,21.333,9.557,21.333,21.333 V192.003z M298.673,277.337H277.34c-11.797,0-21.333-9.557-21.333-21.333s9.536-21.333,21.333-21.333h21.333 c11.797,0,21.333,9.557,21.333,21.333S310.47,277.337,298.673,277.337z M320.006,213.337H277.34 c-11.797,0-21.333-9.557-21.333-21.333s9.536-21.333,21.333-21.333h42.667c11.797,0,21.333,9.557,21.333,21.333 S331.804,213.337,320.006,213.337z M405.34,277.337h-42.667c-11.797,0-21.333-9.557-21.333-21.333s9.536-21.333,21.333-21.333 h42.667c11.797,0,21.333,9.557,21.333,21.333S417.137,277.337,405.34,277.337z M405.34,213.337h-21.333 c-11.797,0-21.333-9.557-21.333-21.333s9.536-21.333,21.333-21.333h21.333c11.797,0,21.333,9.557,21.333,21.333 S417.137,213.337,405.34,213.337z M405.34,149.337h-42.667c-11.797,0-21.333-9.557-21.333-21.333s9.536-21.333,21.333-21.333 h42.667c11.797,0,21.333,9.557,21.333,21.333S417.137,149.337,405.34,149.337z"/> <path d="M0,367.129c0,32.832,26.709,59.541,59.541,59.541h105.152l-10.667,42.667h-4.693c-11.776,0-21.333,9.557-21.333,21.333 s9.557,21.333,21.333,21.333h21.333h170.667h21.333c11.797,0,21.333-9.557,21.333-21.333s-9.536-21.333-21.333-21.333h-4.672 l-10.667-42.667h105.131c32.832,0,59.541-26.709,59.541-59.541v-25.792H0V367.129z M208.683,426.67h94.656l10.667,42.667H198.016 L208.683,426.67z"/> </g> </g> </g> </g>
</svg>