<svg width="24" height="24" viewBox="0 0 24 24" fill="none" xmlns="http://www.w3.org/2000/svg">
<g id="alert-02">
<path id="Vector" d="M5.32074 9.68293C7.73442 5.41199 8.94125 3.27651 10.5973 2.72681C11.5083 2.4244 12.4897 2.4244 13.4007 2.72681C15.0568 3.27651 16.2636 5.41199 18.6773 9.68293C21.091 13.9538 22.2978 16.0893 21.9358 17.8293C21.7366 18.7866 21.2459 19.6548 20.534 20.3097C19.24 21.5 16.8264 21.5 11.999 21.5C7.17168 21.5 4.758 21.5 3.46399 20.3097C2.75211 19.6548 2.26142 18.7866 2.06225 17.8293C1.70022 16.0893 2.90706 13.9538 5.32074 9.68293Z" stroke="white" stroke-width="1.5"/>
<path id="Vector_2" d="M11.9912 16H12.0002" stroke="white" stroke-width="2" stroke-linecap="round" stroke-linejoin="round"/>
<path id="Vector_3" d="M11.999 13V9" stroke="white" stroke-width="1.5" stroke-linecap="round" stroke-linejoin="round"/>
</g>
</svg>
