<svg width="24" height="24" viewBox="0 0 24 24" fill="none" xmlns="http://www.w3.org/2000/svg">
<g id="target-02">
<path id="Vector" d="M16.998 12C16.998 14.7614 14.7594 17 11.998 17C9.23663 17 6.99805 14.7614 6.99805 12C6.99805 9.23858 9.23663 7 11.998 7" stroke="white" stroke-width="1.5" stroke-linecap="round"/>
<path id="Vector_2" d="M13.998 2.20004C13.3518 2.06886 12.6829 2 11.998 2C6.4752 2 1.99805 6.47715 1.99805 12C1.99805 17.5228 6.4752 22 11.998 22C17.5208 22 21.998 17.5228 21.998 12C21.998 11.3151 21.9291 10.6462 21.798 10" stroke="white" stroke-width="1.5" stroke-linecap="round"/>
<path id="Vector_3" d="M12.0283 11.9624L16.5812 7.40949M19.7384 4.34451L19.1852 2.35737C19.0833 2.03 18.6894 1.89954 18.4239 2.11651C16.9878 3.29007 15.4234 4.8708 16.701 7.36408C19.2751 8.56443 20.7446 6.94573 21.8713 5.58519C22.0955 5.31449 21.9603 4.90756 21.6227 4.80994L19.7384 4.34451Z" stroke="white" stroke-width="1.5" stroke-linecap="round" stroke-linejoin="round"/>
</g>
</svg>
