<!DOCTYPE svg PUBLIC "-//W3C//DTD SVG 1.1//EN" "http://www.w3.org/Graphics/SVG/1.1/DTD/svg11.dtd">
<!-- Uploaded to: SVG Repo, www.svgrepo.com, Transformed by: SVG Repo Mixer Tools -->
<svg width="800px" height="800px" viewBox="0 0 70.866 70.866" enable-background="new 0 0 70.866 70.866" id="圖層_1" version="1.1" xml:space="preserve" xmlns="http://www.w3.org/2000/svg" xmlns:xlink="http://www.w3.org/1999/xlink" fill="#06a0ed">
<g id="SVGRepo_bgCarrier" stroke-width="0"/>
<g id="SVGRepo_tracerCarrier" stroke-linecap="round" stroke-linejoin="round"/>
<g id="SVGRepo_iconCarrier"> <g> <circle cx="37.913" cy="6.392" fill="#06a0ed" r="3.459" stroke="#06a0ed" stroke-linecap="round" stroke-linejoin="round" stroke-miterlimit="10" stroke-width="3"/> <line fill="none" stroke="#06a0ed" stroke-linecap="round" stroke-linejoin="round" stroke-miterlimit="10" stroke-width="3" x1="37.913" x2="37.913" y1="9.852" y2="67.933"/> <path d=" M11.616,24.932h26.297V13.241H11.616c-3.229,0-5.846,2.617-5.846,5.846l0,0C5.771,22.315,8.388,24.932,11.616,24.932z" fill="#06a0ed" stroke="#06a0ed" stroke-linecap="round" stroke-linejoin="round" stroke-miterlimit="10" stroke-width="3"/> <path d=" M22.243,41.904h15.67V30.212h-15.67c-3.229,0-5.846,2.618-5.846,5.846l0,0C16.397,39.287,19.015,41.904,22.243,41.904z" fill="#06a0ed" stroke="#06a0ed" stroke-linecap="round" stroke-linejoin="round" stroke-miterlimit="10" stroke-width="3"/> <path d=" M59.25,33.418H37.913V21.727H59.25c3.229,0,5.846,2.617,5.846,5.846l0,0C65.096,30.801,62.479,33.418,59.25,33.418z" fill="#06a0ed" stroke="#06a0ed" stroke-linecap="round" stroke-linejoin="round" stroke-miterlimit="10" stroke-width="3"/> </g> </g>
</svg>