<svg width="20" height="20" viewBox="0 0 20 20" fill="none" xmlns="http://www.w3.org/2000/svg">
<path d="M8.30729 4.64756L8.80916 6.04131C9.08454 6.80538 9.52508 7.49929 10.0994 8.07359C10.6737 8.64789 11.3676 9.08843 12.1317 9.36381L13.5254 9.86568C13.5529 9.87578 13.5767 9.89408 13.5935 9.91811C13.6103 9.94214 13.6193 9.97075 13.6193 10.0001C13.6193 10.0294 13.6103 10.058 13.5935 10.082C13.5767 10.106 13.5529 10.1243 13.5254 10.1344L12.1317 10.6363C11.3676 10.9117 10.6737 11.3522 10.0994 11.9265C9.52508 12.5008 9.08454 13.1947 8.80916 13.9588L8.30729 15.3526C8.29719 15.3801 8.2789 15.4038 8.25486 15.4206C8.23083 15.4374 8.20223 15.4464 8.17291 15.4464C8.1436 15.4464 8.11499 15.4374 8.09096 15.4206C8.06693 15.4038 8.04863 15.3801 8.03854 15.3526L7.53666 13.9588C7.26128 13.1947 6.82074 12.5008 6.24644 11.9265C5.67214 11.3522 4.97823 10.9117 4.21416 10.6363L2.82041 10.1344C2.79289 10.1243 2.76913 10.106 2.75235 10.082C2.73556 10.058 2.72656 10.0294 2.72656 10.0001C2.72656 9.97075 2.73556 9.94214 2.75235 9.91811C2.76913 9.89408 2.79289 9.87578 2.82041 9.86568L4.21416 9.36381C4.97823 9.08843 5.67214 8.64789 6.24644 8.07359C6.82074 7.49929 7.26128 6.80538 7.53666 6.04131L8.03854 4.64756C8.04835 4.61976 8.06654 4.59569 8.09061 4.57866C8.11468 4.56163 8.14343 4.55249 8.17291 4.55249C8.20239 4.55249 8.23115 4.56163 8.25521 4.57866C8.27928 4.59569 8.29747 4.61976 8.30729 4.64756ZM14.581 1.29818L14.8354 2.00381C14.975 2.39067 15.1981 2.742 15.4889 3.03281C15.7797 3.32362 16.1311 3.54674 16.5179 3.68631L17.2235 3.94068C17.2375 3.94577 17.2496 3.95504 17.2581 3.96723C17.2667 3.97942 17.2712 3.99393 17.2712 4.00881C17.2712 4.02369 17.2667 4.0382 17.2581 4.05039C17.2496 4.06258 17.2375 4.07184 17.2235 4.07693L16.5179 4.33131C16.1311 4.47088 15.7797 4.694 15.4889 4.98481C15.1981 5.27562 14.975 5.62695 14.8354 6.01381L14.581 6.71944C14.5759 6.73341 14.5667 6.74549 14.5545 6.75402C14.5423 6.76255 14.5278 6.76713 14.5129 6.76713C14.498 6.76713 14.4835 6.76255 14.4713 6.75402C14.4591 6.74549 14.4499 6.73341 14.4448 6.71944L14.1904 6.01381C14.0508 5.62695 13.8277 5.27562 13.5369 4.98481C13.2461 4.694 12.8948 4.47088 12.5079 4.33131L11.8023 4.07693C11.7883 4.07184 11.7762 4.06258 11.7677 4.05039C11.7592 4.0382 11.7546 4.02369 11.7546 4.00881C11.7546 3.99393 11.7592 3.97942 11.7677 3.96723C11.7762 3.95504 11.7883 3.94577 11.8023 3.94068L12.5079 3.68631C12.8948 3.54674 13.2461 3.32362 13.5369 3.03281C13.8277 2.742 14.0508 2.39067 14.1904 2.00381L14.4448 1.29818C14.4499 1.28421 14.4591 1.27213 14.4713 1.2636C14.4835 1.25507 14.498 1.25049 14.5129 1.25049C14.5278 1.25049 14.5423 1.25507 14.5545 1.2636C14.5667 1.27213 14.5759 1.28421 14.581 1.29818ZM14.581 13.2813L14.8354 13.9869C14.975 14.3738 15.1981 14.7251 15.4889 15.0159C15.7797 15.3067 16.1311 15.5299 16.5179 15.6694L17.2235 15.9238C17.2375 15.9289 17.2496 15.9382 17.2581 15.9504C17.2667 15.9625 17.2712 15.9771 17.2712 15.9919C17.2712 16.0068 17.2667 16.0213 17.2581 16.0335C17.2496 16.0457 17.2375 16.055 17.2235 16.0601L16.5179 16.3144C16.1311 16.454 15.7797 16.6771 15.4889 16.9679C15.1981 17.2587 14.975 17.6101 14.8354 17.9969L14.581 18.7026C14.5759 18.7165 14.5667 18.7286 14.5545 18.7371C14.5423 18.7457 14.5278 18.7503 14.5129 18.7503C14.498 18.7503 14.4835 18.7457 14.4713 18.7371C14.4591 18.7286 14.4499 18.7165 14.4448 18.7026L14.1904 17.9969C14.0508 17.6101 13.8277 17.2587 13.5369 16.9679C13.2461 16.6771 12.8948 16.454 12.5079 16.3144L11.8023 16.0601C11.7883 16.055 11.7762 16.0457 11.7677 16.0335C11.7592 16.0213 11.7546 16.0068 11.7546 15.9919C11.7546 15.9771 11.7592 15.9625 11.7677 15.9504C11.7762 15.9382 11.7883 15.9289 11.8023 15.9238L12.5079 15.6694C12.8948 15.5299 13.2461 15.3067 13.5369 15.0159C13.8277 14.7251 14.0508 14.3738 14.1904 13.9869L14.4448 13.2813C14.4679 13.2176 14.5585 13.2176 14.581 13.2813Z" fill="white"/>
</svg>
