<svg width="15" height="184" viewBox="0 0 15 184" fill="none" xmlns="http://www.w3.org/2000/svg">
<path d="M7.36328 0.000650883C4.41776 0.000651011 2.02995 2.38847 2.02995 5.33398C2.02995 8.2795 4.41776 10.6673 7.36328 10.6673C10.3088 10.6673 12.6966 8.2795 12.6966 5.33398C12.6966 2.38847 10.3088 0.000650754 7.36328 0.000650883ZM6.65618 183.041C7.04671 183.432 7.67987 183.432 8.0704 183.041L14.4344 176.677C14.8249 176.287 14.8249 175.653 14.4344 175.263C14.0438 174.872 13.4107 174.872 13.0201 175.263L7.36329 180.92L1.70643 175.263C1.31591 174.872 0.682745 174.872 0.292221 175.263C-0.0983035 175.653 -0.0983035 176.287 0.292221 176.677L6.65618 183.041ZM7.36328 5.33398L6.36328 5.33398L6.36329 182.334L7.36329 182.334L8.36329 182.334L8.36328 5.33398L7.36328 5.33398Z" fill="url(#paint0_linear_4_1088)"/>
<defs>
<linearGradient id="paint0_linear_4_1088" x1="6.86328" y1="5.33398" x2="6.86329" y2="182.334" gradientUnits="userSpaceOnUse">
<stop stop-color="#035B87" stop-opacity="0"/>
<stop offset="1" stop-color="#06A0ED"/>
</linearGradient>
</defs>
</svg>
