<svg width="24" height="24" viewBox="0 0 24 24" fill="none" xmlns="http://www.w3.org/2000/svg">
<g id="bicycle-01">
<path id="Vector" d="M6 20.002C8.20914 20.002 10 18.2112 10 16.002C10 13.7929 8.20914 12.002 6 12.002C3.79086 12.002 2 13.7929 2 16.002C2 18.2112 3.79086 20.002 6 20.002Z" stroke="white" stroke-width="1.5" stroke-linecap="round" stroke-linejoin="round"/>
<path id="Vector_2" d="M18 20.002C20.2091 20.002 22 18.2112 22 16.002C22 13.7929 20.2091 12.002 18 12.002C15.7909 12.002 14 13.7929 14 16.002C14 18.2112 15.7909 20.002 18 20.002Z" stroke="white" stroke-width="1.5" stroke-linecap="round" stroke-linejoin="round"/>
<path id="Vector_3" d="M6 16.0019H10.3706C10.7302 16.0019 11.0622 15.8088 11.2399 15.4961L15.5 8.00195" stroke="white" stroke-width="1.5" stroke-linecap="round" stroke-linejoin="round"/>
<path id="Vector_4" d="M12 13.0019L7 7.00195M7 7.00195H5M7 7.00195H9" stroke="white" stroke-width="1.5" stroke-linecap="round" stroke-linejoin="round"/>
<path id="Vector_5" d="M20.0029 6.21862C19.7989 5.64262 19.4389 4.74262 18.2389 4.32262C17.4589 4.02262 15.5389 3.90262 15.2989 4.08262C14.9517 4.16943 14.9389 4.56262 15.1069 5.10262C15.2434 5.68157 15.4549 6.42818 15.6469 7.14262C16.1389 8.97342 17.2189 12.9386 18.0229 15.9986" stroke="white" stroke-width="1.5" stroke-linecap="round"/>
</g>
</svg>
