<svg width="24" height="24" viewBox="0 0 24 24" fill="none" xmlns="http://www.w3.org/2000/svg">
<g id="idea-01">
<path id="Vector" d="M6.0884 14.999C5.70999 14.1484 5.49902 13.2021 5.49902 12.2049C5.49902 8.50135 8.40917 5.49902 11.999 5.49902C15.5889 5.49902 18.499 8.50135 18.499 12.2049C18.499 13.2021 18.288 14.1484 17.9096 14.999" stroke="white" stroke-width="1.5" stroke-linecap="round"/>
<path id="Vector_2" d="M11.999 1.99902V2.99902" stroke="white" stroke-width="1.5" stroke-linecap="round" stroke-linejoin="round"/>
<path id="Vector_3" d="M21.999 11.999H20.999" stroke="white" stroke-width="1.5" stroke-linecap="round" stroke-linejoin="round"/>
<path id="Vector_4" d="M2.99902 11.999H1.99902" stroke="white" stroke-width="1.5" stroke-linecap="round" stroke-linejoin="round"/>
<path id="Vector_5" d="M19.0694 4.92773L18.3623 5.63484" stroke="white" stroke-width="1.5" stroke-linecap="round" stroke-linejoin="round"/>
<path id="Vector_6" d="M5.63582 5.63582L4.92871 4.92871" stroke="white" stroke-width="1.5" stroke-linecap="round" stroke-linejoin="round"/>
<path id="Vector_7" d="M14.5155 19.3054C15.5259 18.9786 15.9311 18.0538 16.0451 17.1236C16.0791 16.8457 15.8505 16.6152 15.5705 16.6152L8.47539 16.6154C8.18579 16.6154 7.95321 16.8612 7.98779 17.1487C8.09944 18.0771 8.38124 18.7553 9.45199 19.3054M14.5155 19.3054C14.5155 19.3054 9.62825 19.3054 9.45199 19.3054M14.5155 19.3054C14.394 21.2504 13.8323 22.0207 12.0053 21.9991C10.0511 22.0352 9.60157 21.0831 9.45199 19.3054" stroke="white" stroke-width="1.5" stroke-linecap="round" stroke-linejoin="round"/>
</g>
</svg>
