<svg width="38" height="48" viewBox="0 0 38 48" fill="none" xmlns="http://www.w3.org/2000/svg">
<g id="django 1" clip-path="url(#clip0_9_707)">
<g id="Group">
<path id="Vector" d="M17.0543 0H24.8982V35.951C20.8804 36.711 17.9227 37.01 14.7225 37.01C5.14223 37 0.155273 32.72 0.155273 24.5C0.155273 16.58 5.44507 11.44 13.6423 11.44C14.9143 11.44 15.8833 11.5401 17.0543 11.84V0ZM17.3292 18.3188C16.4105 18.0187 15.6535 17.9188 14.6843 17.9188C10.717 17.9188 8.42549 20.3387 8.42549 24.5797C8.42549 28.7087 10.6162 30.9887 14.634 30.9887C15.502 30.9887 16.2087 30.9398 17.3292 30.7898V18.3188Z" fill="#2BA977"/>
<path id="Vector_2" d="M37.725 12.4052V30.4053C37.725 36.6043 37.2607 39.5853 35.8978 42.1554C34.6258 44.6263 32.9501 46.1843 29.4875 47.9052L22.209 44.4753C25.6716 42.8662 27.3473 41.4443 28.4175 39.2743C29.5378 37.0554 29.8912 34.4852 29.8912 27.7253V12.4053L37.725 12.4052ZM29.1007 0H36.9446V7.97002H29.1007V0Z" fill="#2BA977"/>
</g>
</g>
<defs>
<clipPath id="clip0_9_707">
<rect width="37.6896" height="48" fill="white" transform="translate(0.155273)"/>
</clipPath>
</defs>
</svg>
