<svg width="80" height="80" viewBox="0 0 80 80" fill="none" xmlns="http://www.w3.org/2000/svg">
<g id="Frame" clip-path="url(#clip0_11_520)">
<path id="Vector" d="M40.0034 16C29.3368 16 22.6701 21.3333 20.0034 32C24.0034 26.6667 28.6701 24.6667 34.0034 26C37.0467 26.76 39.2201 28.9667 41.6301 31.4133C45.5534 35.3933 50.0901 40 60.0034 40C70.6701 40 77.3367 34.6667 80.0034 24C76.0034 29.3333 71.3368 31.3333 66.0034 30C62.9601 29.24 60.7868 27.0333 58.3768 24.5867C54.4568 20.6067 49.9201 16 40.0034 16ZM20.0034 40C9.33675 40 2.67008 45.3333 0.00341797 56C4.00342 50.6667 8.67008 48.6667 14.0034 50C17.0468 50.76 19.2201 52.9667 21.6301 55.4133C25.5534 59.3933 30.0901 64 40.0034 64C50.6701 64 57.3368 58.6667 60.0034 48C56.0034 53.3333 51.3367 55.3333 46.0034 54C42.9601 53.24 40.7867 51.0333 38.3767 48.5867C34.4567 44.6067 29.9201 40 20.0034 40Z" fill="#0696E7"/>
</g>
<defs>
<clipPath id="clip0_11_520">
<rect width="80" height="80" fill="white"/>
</clipPath>
</defs>
</svg>
